# xmcd
#
# Track frame offsets: 
#        150
#        28330
#        44507
#        59928
#        76696
#        96261
#        117073
#        130094
#        148622
#        159174
#        183637
#        197923
#        227411
#        236770
#        251994
#        277427
#
# Disc length: 4490 seconds
#
# Revision: 2
# Processed by: cddbd v1.4PL0 Copyright (c) Steve Scherf et al.
# Submitted via: ExactAudioCopy v0.95a3
#
DISCID=f0118810
DTITLE=Various Artist - Brasil - Cd 6 Afro Bahia
DYEAR=2003
DGENRE=Afro Samba
TTITLE0=Caetano Veloso - O estrangeiro
TTITLE1=Maria Bethânia - Rainha negra
TTITLE2=Olodum banda reggae - Tiro seco
TTITLE3=C.Nunes, M.Nascimento - Conto de Areia
TTITLE4=Terra samba - Liberar geral (live)
TTITLE5=Virginia Rodriguez - Negrume da noite
TTITLE6=Chico César - Béradêro (live)
TTITLE7=M.Bethania, Alcione, Nair de Candida, G.Costa, F.Virginia - Me
TTITLE7=dley (Awo-Inhansa) 
TTITLE8=João Gilberto - Samba de minha terra
TTITLE9=Moraes Moreira, Os novos baianos - Preta pretinha (live)
TTITLE10=Gal Costa - Olhos verdes
TTITLE11=Baden Powell, Vinicius de Moraes - Canto de Xangô
TTITLE12=João Gilberto - Rosa morena
TTITLE13=Gal Costa - Meu nome é Gal
TTITLE14=Virginia Rodriguez - Noite de temporal
TTITLE15=Gilberto Gil, Jorge Ben - Filhos de Gandhi
EXTD=
EXTT0=
EXTT1=
EXTT2=
EXTT3=
EXTT4=
EXTT5=
EXTT6=
EXTT7=
EXTT8=
EXTT9=
EXTT10=
EXTT11=
EXTT12=
EXTT13=
EXTT14=
EXTT15=
PLAYORDER=
